name C:\Users\u0150099\Documents\master_thesis\3dpredictsim\Results\debug\Fal_s1_mtjc2_sc_cspx10_oy2_ATx70_Fpsl10_MTc3_MTPm_k1_d01_MTJm_nl_MG_exp5_table_d01_PF_Natali2010_ls146_FDB2_lTs125_Fpsl10_ig21_wAk5e+04_wa2e+03_wpMnD1e+03.mot
datacolumns 130
datarows 4
range 1.04600553 1.07738570
endheader
time	pelvis_tilt	pelvis_list	pelvis_rotation	pelvis_tx	pelvis_ty	pelvis_tz	hip_flexion_l	hip_adduction_l	hip_rotation_l	hip_flexion_r	hip_adduction_r	hip_rotation_r	knee_angle_l	knee_angle_r	ankle_angle_l	ankle_angle_r	subtalar_angle_l	subtalar_angle_r	mtj_angle_l	mtj_angle_r	mtp_angle_l	mtp_angle_r	lumbar_extension	lumbar_bending	lumbar_rotation	arm_flex_l	arm_add_l	arm_rot_l	arm_flex_r	arm_add_r	arm_rot_r	elbow_flex_l	elbow_flex_r	pro_sup_l	pro_sup_r	glut_med1_l/activation	glut_med2_l/activation	glut_med3_l/activation	glut_min1_l/activation	glut_min2_l/activation	glut_min3_l/activation	semimem_l/activation	semiten_l/activation	bifemlh_l/activation	bifemsh_l/activation	sar_l/activation	add_long_l/activation	add_brev_l/activation	add_mag1_l/activation	add_mag2_l/activation	add_mag3_l/activation	tfl_l/activation	pect_l/activation	grac_l/activation	glut_max1_l/activation	glut_max2_l/activation	glut_max3_l/activation	iliacus_l/activation	psoas_l/activation	quad_fem_l/activation	gem_l/activation	peri_l/activation	rect_fem_l/activation	vas_med_l/activation	vas_int_l/activation	vas_lat_l/activation	med_gas_l/activation	lat_gas_l/activation	soleus_l/activation	tib_post_l/activation	flex_dig_l/activation	flex_hal_l/activation	tib_ant_l/activation	per_brev_l/activation	per_long_l/activation	per_tert_l/activation	ext_dig_l/activation	ext_hal_l/activation	FDB_l/activation	ercspn_l/activation	intobl_l/activation	extobl_l/activation	glut_med1_r/activation	glut_med2_r/activation	glut_med3_r/activation	glut_min1_r/activation	glut_min2_r/activation	glut_min3_r/activation	semimem_r/activation	semiten_r/activation	bifemlh_r/activation	bifemsh_r/activation	sar_r/activation	add_long_r/activation	add_brev_r/activation	add_mag1_r/activation	add_mag2_r/activation	add_mag3_r/activation	tfl_r/activation	pect_r/activation	grac_r/activation	glut_max1_r/activation	glut_max2_r/activation	glut_max3_r/activation	iliacus_r/activation	psoas_r/activation	quad_fem_r/activation	gem_r/activation	peri_r/activation	rect_fem_r/activation	vas_med_r/activation	vas_int_r/activation	vas_lat_r/activation	med_gas_r/activation	lat_gas_r/activation	soleus_r/activation	tib_post_r/activation	flex_dig_r/activation	flex_hal_r/activation	tib_ant_r/activation	per_brev_r/activation	per_long_r/activation	per_tert_r/activation	ext_dig_r/activation	ext_hal_r/activation	FDB_r/activation	ercspn_r/activation	intobl_r/activation	extobl_r/activation	
          1.04600553	         -2.92833528	         -1.33120017	          2.72335801	          1.39118736	          0.90901965	         -0.00351651	        -13.26739978	          1.97064868	          8.12203982	         29.88439527	          2.57591082	         -3.55222832	        -15.94471402	        -13.09734692	          8.85674019	         10.41741280	          6.45322058	          4.17727341	         -0.78537667	         -1.06724059	         15.42458009	         -1.26640646	         -4.21873403	          0.70959935	         -1.50026799	          2.92400832	        -14.08411751	         19.38396511	         -2.96747101	        -13.50108416	          8.03013672	         41.42987864	         24.47060368	         86.51662706	         86.51662706	          0.24685227	          0.05866077	          0.05000005	          0.46452701	          0.18192393	          0.07041300	          0.05000117	          0.05000012	          0.05000010	          0.05000044	          0.09470040	          0.05000008	          0.05000007	          0.05000017	          0.05000054	          0.05000035	          0.56682385	          0.05000042	          0.05000021	          0.05000138	          0.05000062	          0.05000035	          0.37443290	          0.75217176	          0.05000004	          0.05000019	          0.05000005	          0.42225410	          0.14356206	          0.17639725	          0.14694422	          0.36719061	          0.46292319	          0.29503379	          0.51609393	          0.39681733	          0.51027906	          0.05000000	          0.06895298	          0.20268317	          0.05000006	          0.05000003	          0.09509106	          0.73937378	          0.05000001	          0.05000000	          0.05000001	          0.05000092	          0.05000019	          0.05871678	          0.05000008	          0.05000011	          0.05000108	          0.38929166	          0.06895305	          0.25533745	          0.05000212	          0.05000086	          0.07994864	          0.16527986	          0.14148007	          0.18334988	          0.18215383	          0.05000238	          0.05006982	          0.09104420	          0.05941113	          0.09448476	          0.14858311	          0.05000005	          0.05000006	          0.15296791	          0.05000176	          0.05000031	          0.05000008	          0.05030112	          0.05053470	          0.05000344	          0.05759846	          0.05000067	          0.05082571	          0.05248876	          0.05000203	          0.05000060	          0.32605455	          0.05000021	          0.05654731	          0.21664639	          0.60839313	          0.38643657	          0.36119868	          0.06229680	          0.07685374	          0.09666369	
          1.05646559	         -2.93011676	         -1.40797474	          3.00971444	          1.40753545	          0.90813897	         -0.00325852	        -13.84320220	          1.59723885	          8.12652858	         29.57020844	          2.88413698	         -3.56100430	        -16.49241681	        -13.32527674	          7.87286905	          9.97034118	          7.14731083	          4.26882171	         -1.72673471	         -0.66782879	         17.88053969	         -1.96927105	         -4.05362382	          0.86497569	         -1.57838951	          2.49103933	        -14.07083662	         19.35441386	         -3.74662119	        -13.46269816	          7.11381927	         43.17907130	         24.03958639	         86.51662706	         86.51662706	          0.21020617	          0.05000004	          0.05000001	          0.39556633	          0.15491669	          0.05996001	          0.05000236	          0.05000016	          0.05000010	          0.05000041	          0.08064190	          0.08816369	          0.05000849	          0.05000040	          0.05000126	          0.05000094	          0.54540264	          0.05871619	          0.05000019	          0.05000041	          0.05000025	          0.05000025	          0.31884698	          0.68006145	          0.05000002	          0.05000011	          0.05000013	          0.38239418	          0.16839598	          0.19646487	          0.15487593	          0.33315869	          0.42252503	          0.25410108	          0.46832210	          0.39480336	          0.43464135	          0.05000000	          0.05871669	          0.17259411	          0.05000004	          0.05000002	          0.08097445	          0.62961102	          0.05000001	          0.05000014	          0.06398632	          0.05871670	          0.05871671	          0.05000014	          0.05871674	          0.05871674	          0.05871653	          0.34944716	          0.05871676	          0.21951805	          0.05871670	          0.05000015	          0.16122510	          0.18371579	          0.12047711	          0.17030607	          0.17325131	          0.05000009	          0.05000098	          0.07752870	          0.05059144	          0.08045822	          0.15689519	          0.06189107	          0.05047817	          0.46735774	          0.24621688	          0.11657921	          0.05000003	          0.05000004	          0.05000004	          0.05000003	          0.05000020	          0.05000009	          0.05000000	          0.05000056	          0.05871671	          0.05871670	          0.33319364	          0.05001326	          0.09110095	          0.25337196	          0.64847060	          0.35114193	          0.30757758	          0.05304862	          0.06544452	          0.08231362	
          1.06692564	         -2.92996936	         -1.49675437	          3.28035409	          1.42414177	          0.90730374	         -0.00297818	        -14.33368280	          1.20231584	          8.09489163	         29.26322147	          3.15122964	         -3.55425897	        -17.15366313	        -14.23257607	          6.72891973	          9.14086355	          7.87733802	          4.35906560	         -2.76643984	         -0.14798027	         20.52706547	         -2.58889431	         -3.87485515	          1.03268209	         -1.64976400	          1.99113519	        -14.03699769	         19.22890501	         -4.52789069	        -13.44970740	          6.47863899	         44.91493063	         23.58515015	         86.51662706	         86.51662706	          0.17900031	          0.05871673	          0.05871672	          0.33684308	          0.13191878	          0.05871672	          0.05000247	          0.05000069	          0.05871596	          0.05000004	          0.06867046	          0.21207082	          0.08881485	          0.05871731	          0.05871692	          0.05871748	          0.46443604	          0.05000054	          0.05871677	          0.05871689	          0.05871677	          0.05871679	          0.27151298	          0.60949579	          0.05871675	          0.05871680	          0.05871663	          0.32562639	          0.18500734	          0.19963674	          0.16606293	          0.29221101	          0.37680985	          0.21637884	          0.39879799	          0.33619346	          0.37011730	          0.05000002	          0.05000001	          0.14697189	          0.05000002	          0.05000001	          0.06895350	          0.53614295	          0.06010930	          0.06895304	          0.06895300	          0.05000000	          0.05000003	          0.12018239	          0.05000004	          0.05000004	          0.05000004	          0.29757046	          0.05000006	          0.18692980	          0.05000002	          0.08097380	          0.13729095	          0.33120078	          0.29127148	          0.14502497	          0.19482800	          0.05871669	          0.08098146	          0.06601936	          0.05000025	          0.10292394	          0.17436790	          0.06895394	          0.06895348	          0.68618915	          0.20966514	          0.09927268	          0.06895309	          0.12688888	          0.12497625	          0.09943618	          0.06895302	          0.06895311	          0.06895303	          0.05000006	          0.05000007	          0.05000007	          0.40236158	          0.06907456	          0.07757669	          0.39428047	          0.67143912	          0.30698355	          0.26191655	          0.05000000	          0.05572904	          0.07009386	
          1.07738570	         -2.92882511	         -1.61828133	          3.53677784	          1.44096031	          0.90656023	         -0.00271057	        -14.73261812	          0.77659798	          8.03556892	         28.86928499	          3.34554147	         -3.45987824	        -17.92610054	        -15.31412905	          5.41038459	          8.23859695	          8.58714593	          4.45925881	         -3.88659085	          0.28508026	         23.28634988	         -3.15397371	         -3.68286286	          1.23534738	         -1.71486033	          1.43494038	        -13.98198974	         19.04939773	         -5.29478904	        -13.46547531	          6.11050818	         46.62625866	         23.08376099	         86.51662706	         86.51662706	          0.18883800	          0.05000005	          0.05000001	          0.28683813	          0.11233500	          0.05000009	          0.05000108	          0.05000010	          0.05000005	          0.05871696	          0.05871876	          0.21627983	          0.10495515	          0.05000060	          0.05000055	          0.05000076	          0.53911945	          0.06898931	          0.05000029	          0.05000041	          0.05000019	          0.05000016	          0.23120591	          0.69837555	          0.05000004	          0.05000012	          0.05000001	          0.27728597	          0.15754234	          0.16999995	          0.14141029	          0.24883122	          0.32087109	          0.18425661	          0.33959497	          0.28628433	          0.31517205	          0.14228919	          0.12151934	          0.12515338	          0.05000011	          0.05000003	          0.05871711	          0.45655055	          0.08677929	          0.05871671	          0.05871669	          0.32844811	          0.31881593	          0.37014370	          0.40281225	          0.28142262	          0.25357767	          0.25339510	          0.16117615	          0.17858551	          0.09615974	          0.06895302	          0.11690965	          0.28203287	          0.24803122	          0.12349564	          0.25439874	          0.05000020	          0.06895983	          0.21217517	          0.16062961	          0.18181407	          0.22972904	          0.05871752	          0.05871711	          0.58432186	          0.17853964	          0.14015847	          0.05871675	          0.10805177	          0.10642307	          0.08467452	          0.05871670	          0.05871677	          0.05871670	          0.08264959	          0.07376330	          0.06895459	          0.46134932	          0.05882021	          0.10269703	          0.43411459	          0.80642537	          0.59170366	          0.56515209	          0.07380975	          0.09635613	          0.05968817	
